<svg width="24" height="25" viewBox="0 0 24 25" fill="none" xmlns="http://www.w3.org/2000/svg">
<path fill-rule="evenodd" clip-rule="evenodd" d="M5.84901 8.97289C6.08811 8.73382 6.41238 8.59951 6.75049 8.59951C7.0886 8.59951 7.41286 8.73382 7.65196 8.97289L11.9998 13.3199L16.3487 8.97189C16.4666 8.85123 16.6072 8.75516 16.7625 8.68925C16.9178 8.62334 17.0846 8.58889 17.2533 8.58791C17.4219 8.58693 17.5891 8.61943 17.7452 8.68353C17.9012 8.74763 18.0429 8.84205 18.1622 8.96133C18.2815 9.08061 18.3759 9.22237 18.44 9.3784C18.5041 9.53443 18.5366 9.70163 18.5356 9.87032C18.5346 10.039 18.5002 10.2058 18.4343 10.3611C18.3684 10.5164 18.2723 10.657 18.1517 10.7749L12.9018 16.0249C12.6627 16.264 12.3384 16.3983 12.0003 16.3983C11.6622 16.3983 11.338 16.264 11.0989 16.0249L5.84901 10.7749C5.60995 10.5358 5.47565 10.2115 5.47565 9.87339C5.47565 9.53527 5.60995 9.21199 5.84901 8.97289Z" fill="black"/>
</svg>
