<svg width="9" height="15" viewBox="0 0 9 15" fill="none" xmlns="http://www.w3.org/2000/svg">
<path d="M0 9.382H1.44C1.552 10.886 2.72 11.878 4.432 11.878C5.936 11.878 7.008 11.19 7.008 9.974C7.008 8.582 5.632 8.294 3.936 8.006C2.128 7.702 0.272 7.11 0.272 4.934C0.272 3.03 1.824 1.75 4.096 1.75C6.592 1.75 8.128 3.142 8.256 5.158H6.816C6.656 3.862 5.616 3.014 4.096 3.014C2.64 3.014 1.664 3.654 1.664 4.854C1.664 6.198 3.024 6.47 4.704 6.758C6.528 7.062 8.4 7.67 8.4 9.846C8.4 11.782 6.768 13.142 4.416 13.142C1.68 13.142 0.08 11.59 0 9.382Z" fill="#8592AD"/>
<path d="M4 2.25V0.25" stroke="#8592AD"/>
<path d="M4 14.75V12.25" stroke="#8592AD"/>
</svg>
