<svg width="11" height="11" viewBox="0 0 11 11" fill="none" xmlns="http://www.w3.org/2000/svg">
<path d="M6.68631 11C3.80573 11 2 8.80618 2 5.5C2 2.22472 3.87739 0 6.78662 0C9.00796 0 10.6274 1.39045 11 3.63062H9.68153C9.29459 2.13202 8.23408 1.23595 6.7293 1.23595C4.62261 1.23595 3.27548 2.99719 3.27548 5.5C3.27548 7.98736 4.56529 9.76405 6.67198 9.76405C8.21975 9.76405 9.29459 8.88343 9.6672 7.36938H10.9857C10.6131 9.60955 8.95064 11 6.68631 11Z" fill="#8592AD"/>
<path d="M0 7H7" stroke="#8592AD"/>
<path d="M0 5H7" stroke="#8592AD"/>
</svg>
