<svg width="16" height="16" viewBox="0 0 16 16" fill="none" xmlns="http://www.w3.org/2000/svg">
<g clip-path="url(#clip0_12_522)">
<path d="M7.99995 5.61328C6.68381 5.61328 5.61328 6.6838 5.61328 7.99994L7.99995 5.61328ZM7.99995 5.61328C6.68276 5.61328 5.61328 6.68275 5.61328 7.99994L7.99995 5.61328Z" fill="#2467E3"/>
<path d="M7.99995 5.61328C8.27386 5.61328 8.54135 5.65972 8.79276 5.74819M7.99995 5.61328C6.68381 5.61328 5.61328 6.6838 5.61328 7.99994M7.99995 5.61328C6.68276 5.61328 5.61328 6.68275 5.61328 7.99994M5.61328 7.99994C5.61328 8.27385 5.65972 8.54135 5.74819 8.79275" stroke="#2467E3"/>
<path d="M3.73323 12.3399C3.6199 12.3399 3.4999 12.2999 3.40656 12.2199C2.69323 11.6132 2.05323 10.8666 1.50656 9.99991C0.799896 8.89991 0.799896 7.10657 1.50656 5.99991C3.13323 3.45324 5.4999 1.98657 7.9999 1.98657C9.46656 1.98657 10.9132 2.49324 12.1799 3.44657C12.3999 3.61324 12.4466 3.92657 12.2799 4.14657C12.1132 4.36657 11.7999 4.41324 11.5799 4.24657C10.4866 3.41991 9.24656 2.98657 7.9999 2.98657C5.84656 2.98657 3.78656 4.27991 2.34656 6.53991C1.84656 7.31991 1.84656 8.67991 2.34656 9.45991C2.84656 10.2399 3.4199 10.9132 4.05323 11.4599C4.2599 11.6399 4.28656 11.9532 4.10656 12.1666C4.01323 12.2799 3.87323 12.3399 3.73323 12.3399Z" fill="#2467E3"/>
<path d="M7.99972 14.0134C7.11305 14.0134 6.24638 13.8334 5.41305 13.4801C5.15972 13.3734 5.03972 13.0801 5.14638 12.8268C5.25305 12.5734 5.54638 12.4534 5.79972 12.5601C6.50638 12.8601 7.24638 13.0134 7.99305 13.0134C10.1464 13.0134 12.2064 11.7201 13.6464 9.46008C14.1464 8.68008 14.1464 7.32008 13.6464 6.54008C13.4397 6.21342 13.213 5.90008 12.973 5.60675C12.7997 5.39342 12.833 5.08008 13.0464 4.90008C13.2597 4.72675 13.573 4.75342 13.753 4.97342C14.013 5.29342 14.2664 5.64008 14.493 6.00008C15.1997 7.10008 15.1997 8.89342 14.493 10.0001C12.8664 12.5468 10.4997 14.0134 7.99972 14.0134Z" fill="#2467E3"/>
<path d="M8.45973 10.8467C8.22639 10.8467 8.01306 10.68 7.96639 10.44C7.91306 10.1667 8.09306 9.90666 8.36639 9.85999C9.09973 9.72666 9.71306 9.11332 9.84639 8.37999C9.89973 8.10666 10.1597 7.93332 10.4331 7.97999C10.7064 8.03332 10.8864 8.29332 10.8331 8.56666C10.6197 9.71999 9.69973 10.6333 8.55306 10.8467C8.51973 10.84 8.49306 10.8467 8.45973 10.8467Z" fill="#2467E3"/>
<path d="M1.33427 15.1666C1.2076 15.1666 1.08094 15.1199 0.980938 15.0199C0.787604 14.8266 0.787604 14.5066 0.980938 14.3132L5.96094 9.33323C6.15427 9.1399 6.47427 9.1399 6.6676 9.33323C6.86094 9.52656 6.86094 9.84656 6.6676 10.0399L1.6876 15.0199C1.5876 15.1199 1.46094 15.1666 1.33427 15.1666Z" fill="#2467E3"/>
<path d="M9.68583 6.81329C9.55917 6.81329 9.4325 6.76662 9.3325 6.66662C9.13917 6.47329 9.13917 6.15329 9.3325 5.95996L14.3125 0.979961C14.5058 0.786627 14.8258 0.786627 15.0192 0.979961C15.2125 1.17329 15.2125 1.49329 15.0192 1.68662L10.0392 6.66662C9.93917 6.76662 9.8125 6.81329 9.68583 6.81329Z" fill="#2467E3"/>
</g>
<defs>
<clipPath id="clip0_12_522">
<rect width="16" height="16" fill="white"/>
</clipPath>
</defs>
</svg>
