<svg width="103" height="31" viewBox="0 0 103 31" fill="none" xmlns="http://www.w3.org/2000/svg">
<mask id="mask0_39_553" style="mask-type:luminance" maskUnits="userSpaceOnUse" x="0" y="0" width="103" height="31">
<path d="M103 0H0V30.3111H103V0Z" fill="white"/>
</mask>
<g mask="url(#mask0_39_553)">
<path d="M12.1269 11.6626V6.53074H9.42416C9.48906 6.4848 9.55605 6.43887 9.62304 6.39607C10.5578 5.78955 11.6454 5.47011 12.7676 5.47011C15.955 5.47011 18.5489 8.05693 18.5489 11.2357V11.601H23.9901V11.2357C23.9901 9.72615 23.6929 8.26049 23.1066 6.87835C22.5413 5.54528 21.7322 4.34894 20.7022 3.32174C19.6722 2.29452 18.4726 1.48757 17.1358 0.924908C15.752 0.339272 14.2812 0.0428005 12.7676 0.0428005C10.5903 0.0428005 8.47682 0.666018 6.65752 1.84564C6.12156 2.19327 5.61597 2.58577 5.14702 3.019V0H0V6.40128L6.61461 11.6637L12.1269 11.6626Z" fill="#040506"/>
<path d="M12.126 12.0813V17.2142H14.7954C13.8229 17.9074 12.6609 18.2811 11.4425 18.2811C8.25505 18.2811 5.66114 15.6943 5.66114 12.5156V12.1502H0.219971V12.5156C0.219971 14.0251 0.517256 15.4908 1.10345 16.8728C1.66872 18.206 2.47787 19.4023 3.50686 20.4294C4.53688 21.4567 5.73651 22.2626 7.07324 22.8273C8.45814 23.4119 9.92885 23.7084 11.4425 23.7084C14.294 23.7084 17.0397 22.6186 19.1071 20.6915V23.7178H24.2541V17.3436L17.6394 12.0823H12.1271L12.126 12.0813Z" fill="#040506"/>
<path d="M41.6417 15.1222H46.8421V15.1556C46.5071 16.4271 45.8633 17.3416 44.9128 17.899C43.9625 18.4565 42.9387 18.7352 41.8437 18.7352C40.0988 18.7352 38.7515 18.1162 37.801 16.8781C36.8505 15.64 36.3754 13.9843 36.3754 11.9101C36.3754 9.83584 36.8559 8.23551 37.8178 6.9755C38.7787 5.7155 40.0988 5.08497 41.7767 5.08497C43.0067 5.08497 44.0126 5.43574 44.7957 6.13933C45.5786 6.84188 46.0927 7.77306 46.3386 8.93284H52.411C52.254 7.19264 51.7232 5.64869 50.8178 4.29891C49.9123 2.95017 48.6928 1.89581 47.1614 1.13689C45.6289 0.379008 43.8903 -0.000976562 41.9442 -0.000976562C39.5063 -0.000976562 37.3929 0.489663 35.6038 1.47095C33.8138 2.45223 32.4448 3.83541 31.4943 5.61946C30.5438 7.40455 30.0685 9.50073 30.0685 11.909C30.0685 14.3173 30.5323 16.3875 31.4608 18.1819C32.3882 19.9774 33.703 21.3659 35.4029 22.3472C37.1019 23.3284 39.0708 23.8191 41.3078 23.8191C42.7387 23.8191 43.997 23.5852 45.0815 23.1165C46.1659 22.6478 47.0546 21.9902 47.7486 21.1424L48.4196 23.6186H52.5126V10.4382H41.6428L41.6417 15.1222Z" fill="#040506"/>
<path d="M66.3655 6.35645H65.5269C64.3189 6.35645 63.3351 6.56835 62.575 6.99218C61.8141 7.41601 61.1775 8.05176 60.6625 8.89941L60.1926 6.35645H54.8582V23.6197H60.6616V15.3226C60.6616 12.7577 61.8361 11.4748 64.1839 11.4748H66.3644L66.3655 6.35645Z" fill="#040506"/>
<path d="M80.0036 7.1926C78.6062 6.50154 76.9899 6.15601 75.156 6.15601C73.322 6.15601 71.7958 6.51824 70.4423 7.24376C69.0889 7.96929 68.0378 8.99963 67.2884 10.3379C66.5388 11.6762 66.1641 13.2484 66.1641 15.0553C66.1641 16.8624 66.5504 18.3897 67.3218 19.706C68.0933 21.0223 69.2175 22.0371 70.6936 22.7501C72.1695 23.4642 73.9249 23.8212 75.9609 23.8212C77.5259 23.8212 78.9076 23.5486 80.1041 23.0017C81.3005 22.4556 82.251 21.7198 82.9555 20.7938C83.6601 19.8689 84.0902 18.8479 84.2473 17.733H78.5444C78.2094 19.0044 77.2139 19.6403 75.5589 19.6403C73.613 19.6403 72.495 18.5692 72.204 16.4281V16.3613H84.2807C84.3927 15.8258 84.4482 15.2015 84.4482 14.4875C84.4482 12.8371 84.0567 11.3818 83.2737 10.1218C82.4908 8.86182 81.4 7.88576 80.0026 7.1947L80.0036 7.1926ZM72.271 12.813C72.405 11.9884 72.7463 11.3578 73.2948 10.9225C73.8422 10.4872 74.5635 10.2701 75.4585 10.2701C76.3535 10.2701 77.0517 10.4872 77.6222 10.9225C78.1927 11.3578 78.5559 11.9884 78.7129 12.813H72.271Z" fill="#040506"/>
<path d="M96.7938 6.35652L93.2043 17.8322L89.5814 6.35652H83.4086L90.0514 23.7199L89.817 24.3557C89.6598 24.8245 89.4474 25.1365 89.1795 25.2921C88.9115 25.4476 88.5084 25.5259 87.9715 25.5259H85.2541V30.3102H90.5548C91.4718 30.3102 92.2266 30.1432 92.8191 29.808C93.4115 29.474 93.9036 28.9937 94.295 28.3696C94.6865 27.7453 95.0833 26.8976 95.4862 25.8265L103.001 6.35547H96.7947L96.7938 6.35652Z" fill="#040506"/>
</g>
</svg>
