<svg width="16" height="17" viewBox="0 0 16 17" fill="none" xmlns="http://www.w3.org/2000/svg">
<path d="M13.3605 4.85685L9.52048 2.17018C8.47382 1.43685 6.86715 1.47685 5.86048 2.25685L2.52048 4.86352C1.85382 5.38352 1.32715 6.45018 1.32715 7.29018V11.8901C1.32715 13.5901 2.70715 14.9768 4.40715 14.9768H11.5938C13.2938 14.9768 14.6738 13.5968 14.6738 11.8968V7.37685C14.6738 6.47685 14.0938 5.37018 13.3605 4.85685ZM8.50048 12.3101C8.50048 12.5835 8.27382 12.8101 8.00048 12.8101C7.72715 12.8101 7.50048 12.5835 7.50048 12.3101V10.3102C7.50048 10.0368 7.72715 9.81018 8.00048 9.81018C8.27382 9.81018 8.50048 10.0368 8.50048 10.3102V12.3101Z" fill="#2467E3"/>
</svg>
