<svg width="16" height="17" viewBox="0 0 16 17" fill="none" xmlns="http://www.w3.org/2000/svg">
<path d="M8.67367 2.2579L12.607 4.00457C13.7403 4.50457 13.7403 5.33124 12.607 5.83124L8.67367 7.5779C8.22701 7.7779 7.49367 7.7779 7.04701 7.5779L3.11367 5.83124C1.98034 5.33124 1.98034 4.50457 3.11367 4.00457L7.04701 2.2579C7.49367 2.05791 8.22701 2.05791 8.67367 2.2579Z" stroke="#A3ADC2" stroke-width="1.5" stroke-linecap="round" stroke-linejoin="round"/>
<path d="M2 7.64502C2 8.20502 2.42 8.85169 2.93333 9.07836L7.46 11.0917C7.80667 11.245 8.2 11.245 8.54 11.0917L13.0667 9.07836C13.58 8.85169 14 8.20502 14 7.64502" stroke="#A3ADC2" stroke-width="1.5" stroke-linecap="round" stroke-linejoin="round"/>
<path d="M2 10.9771C2 11.5971 2.36667 12.1571 2.93333 12.4104L7.46 14.4238C7.80667 14.5771 8.2 14.5771 8.54 14.4238L13.0667 12.4104C13.6333 12.1571 14 11.5971 14 10.9771" stroke="#A3ADC2" stroke-width="1.5" stroke-linecap="round" stroke-linejoin="round"/>
</svg>
