<svg width="16" height="17" viewBox="0 0 16 17" fill="none" xmlns="http://www.w3.org/2000/svg">
<path d="M8 10.5C9.10457 10.5 10 9.60457 10 8.5C10 7.39543 9.10457 6.5 8 6.5C6.89543 6.5 6 7.39543 6 8.5C6 9.60457 6.89543 10.5 8 10.5Z" stroke="#2D3443" stroke-width="1.5" stroke-miterlimit="10" stroke-linecap="round" stroke-linejoin="round"/>
<path d="M1.33301 9.0863V7.91297C1.33301 7.21963 1.89967 6.6463 2.59967 6.6463C3.80634 6.6463 4.29967 5.79297 3.69301 4.7463C3.34634 4.1463 3.55301 3.3663 4.15967 3.01963L5.31301 2.35963C5.83967 2.0463 6.51967 2.23297 6.83301 2.75963L6.90634 2.8863C7.50634 3.93297 8.49301 3.93297 9.09967 2.8863L9.17301 2.75963C9.48634 2.23297 10.1663 2.0463 10.693 2.35963L11.8463 3.01963C12.453 3.3663 12.6597 4.1463 12.313 4.7463C11.7063 5.79297 12.1997 6.6463 13.4063 6.6463C14.0997 6.6463 14.673 7.21297 14.673 7.91297V9.0863C14.673 9.77963 14.1063 10.353 13.4063 10.353C12.1997 10.353 11.7063 11.2063 12.313 12.253C12.6597 12.8596 12.453 13.633 11.8463 13.9796L10.693 14.6396C10.1663 14.953 9.48634 14.7663 9.17301 14.2396L9.09967 14.113C8.49967 13.0663 7.51301 13.0663 6.90634 14.113L6.83301 14.2396C6.51967 14.7663 5.83967 14.953 5.31301 14.6396L4.15967 13.9796C3.55301 13.633 3.34634 12.853 3.69301 12.253C4.29967 11.2063 3.80634 10.353 2.59967 10.353C1.89967 10.353 1.33301 9.77963 1.33301 9.0863Z" stroke="#2D3443" stroke-width="1.5" stroke-miterlimit="10" stroke-linecap="round" stroke-linejoin="round"/>
</svg>
